<?xml version="1.0" encoding="utf-8"?>
<!-- Generator: Adobe Illustrator 16.0.0, SVG Export Plug-In . SVG Version: 6.00 Build 0)  -->
<!DOCTYPE svg PUBLIC "-//W3C//DTD SVG 1.1//EN" "http://www.w3.org/Graphics/SVG/1.1/DTD/svg11.dtd">
<svg version="1.1" id="Layer_1" xmlns="http://www.w3.org/2000/svg" xmlns:xlink="http://www.w3.org/1999/xlink" x="0px" y="0px"
	 width="245.5px" height="94.5px" viewBox="0 0 245.5 94.5" enable-background="new 0 0 245.5 94.5" xml:space="preserve">
<g>
	<g>
		<path fill="none" stroke="#222222" stroke-width="1.7" stroke-miterlimit="10" d="M21.814,82.576V0 M26.479,82.576V0
			 M33.478,69.98V0"/>
		<line fill="none" stroke="#222222" stroke-width="3.7" stroke-miterlimit="10" x1="41.643" y1="69.98" x2="41.643" y2="0"/>
		<line fill="none" stroke="#222222" stroke-width="7.7" stroke-miterlimit="10" x1="50.974" y1="69.98" x2="50.974" y2="0"/>
		<line fill="none" stroke="#222222" stroke-width="1.7" stroke-miterlimit="10" x1="59.138" y1="69.98" x2="59.138" y2="0"/>
		<line fill="none" stroke="#222222" stroke-width="5.7" stroke-miterlimit="10" x1="68.469" y1="69.98" x2="68.469" y2="0"/>
		<line fill="none" stroke="#222222" stroke-width="1.7" stroke-miterlimit="10" x1="75.467" y1="69.98" x2="75.467" y2="0"/>
		<line fill="none" stroke="#222222" stroke-width="3.7" stroke-miterlimit="10" x1="81.299" y1="69.98" x2="81.299" y2="0"/>
		<path fill="none" stroke="#222222" stroke-width="1.7" stroke-miterlimit="10" d="M91.796,69.98V0 M103.46,69.98V0 M108.125,69.98
			V0 M115.124,69.98V0 M124.454,69.98V0 M129.12,82.526V0 M133.785,82.526V0 M138.451,69.98V0 M145.449,69.98V0"/>
		<line fill="none" stroke="#222222" stroke-width="5.7" stroke-miterlimit="10" x1="157.113" y1="69.98" x2="157.113" y2="0"/>
		<line fill="none" stroke="#222222" stroke-width="1.7" stroke-miterlimit="10" x1="164.111" y1="69.98" x2="164.111" y2="0"/>
		<line fill="none" stroke="#222222" stroke-width="5.7" stroke-miterlimit="10" x1="173.441" y1="69.98" x2="173.441" y2="0"/>
		<line fill="none" stroke="#222222" stroke-width="1.7" stroke-miterlimit="10" x1="182.773" y1="69.98" x2="182.773" y2="0"/>
		<path fill="none" stroke="#222222" stroke-width="3.7" stroke-miterlimit="10" d="M188.605,69.98V0 M197.936,69.98V0
			 M204.934,69.98V0 M211.932,69.98V0"/>
		<path fill="none" stroke="#222222" stroke-width="1.7" stroke-miterlimit="10" d="M220.096,69.98V0 M227.096,69.98V0
			 M236.426,82.525V0 M241.092,82.525V0"/>
	</g>
	<path fill="#222222" d="M0,78.051v-1.886c1.776-0.173,3.016-0.462,3.718-0.868c0.702-0.405,1.227-1.364,1.572-2.877h1.941v19.491
		H4.606v-13.86H0z"/>
	<path fill="#222222" d="M31.898,87.51c0.606-1.248,1.788-2.383,3.547-3.402l2.625-1.518c1.176-0.684,2-1.268,2.474-1.751
		c0.747-0.759,1.121-1.626,1.121-2.603c0-1.142-0.342-2.047-1.025-2.717c-0.684-0.672-1.595-1.008-2.734-1.008
		c-1.686,0-2.852,0.641-3.499,1.92c-0.347,0.687-0.537,1.636-0.574,2.852h-2.5c0.026-1.705,0.342-3.094,0.943-4.169
		c1.066-1.896,2.947-2.844,5.646-2.844c2.241,0,3.879,0.606,4.914,1.818c1.034,1.212,1.551,2.56,1.551,4.046
		c0,1.568-0.552,2.906-1.654,4.019c-0.638,0.647-1.78,1.431-3.43,2.351l-1.872,1.04c-0.894,0.492-1.595,0.961-2.105,1.407
		c-0.911,0.793-1.484,1.673-1.723,2.639H44.29v2.324H30.854c0.091-1.691,0.439-3.162,1.045-4.41V87.51z"/>
	<path fill="#222222" d="M48.538,90.543c-1.044-1.271-1.565-2.818-1.565-4.641h2.569c0.11,1.266,0.347,2.187,0.711,2.76
		c0.638,1.03,1.79,1.545,3.458,1.545c1.294,0,2.333-0.347,3.116-1.039c0.784-0.693,1.176-1.586,1.176-2.68
		c0-1.348-0.413-2.291-1.237-2.829s-1.97-0.806-3.438-0.806c-0.164,0-0.33,0.002-0.499,0.006c-0.169,0.006-0.34,0.012-0.512,0.021
		v-2.173c0.255,0.026,0.469,0.046,0.643,0.055c0.174,0.01,0.36,0.015,0.56,0.015c0.92,0,1.678-0.146,2.269-0.438
		c1.039-0.512,1.559-1.422,1.559-2.734c0-0.975-0.347-1.727-1.039-2.256c-0.693-0.529-1.499-0.793-2.419-0.793
		c-1.641,0-2.775,0.547-3.404,1.641c-0.346,0.602-0.542,1.457-0.588,2.568h-2.433c0-1.457,0.292-2.696,0.875-3.718
		c1.002-1.821,2.766-2.733,5.289-2.733c1.996,0,3.54,0.443,4.634,1.332c1.095,0.889,1.641,2.176,1.641,3.862
		c0,1.202-0.323,2.178-0.971,2.925c-0.401,0.465-0.92,0.83-1.559,1.095c1.03,0.282,1.834,0.827,2.412,1.633
		c0.579,0.806,0.868,1.792,0.868,2.959c0,1.868-0.615,3.39-1.846,4.565s-2.975,1.764-5.234,1.764
		c-2.313-0.012-3.992-0.643-5.035-1.913V90.543z"/>
	<path fill="#222222" d="M71.922,91.92v-4.785h-8.584v-2.405l8.967-12.438h2.078V84.99h2.884v2.146h-2.884v4.784H71.922
		L71.922,91.92z M71.881,84.991v-8.89l-6.274,8.89H71.881z"/>
	<path fill="#222222" d="M82.409,86.928c0.165,1.402,0.815,2.373,1.955,2.91c0.583,0.273,1.257,0.411,2.022,0.411
		c1.458,0,2.538-0.464,3.239-1.394s1.052-1.96,1.052-3.089c0-1.367-0.416-2.424-1.25-3.171c-0.834-0.748-1.834-1.121-3-1.121
		c-0.849,0-1.575,0.164-2.18,0.492c-0.605,0.328-1.124,0.783-1.552,1.367l-2.132-0.123l1.49-10.538h10.169v2.378h-8.325l-0.834,5.44
		c0.456-0.347,0.89-0.606,1.299-0.779c0.729-0.301,1.572-0.451,2.528-0.451c1.795,0,3.317,0.579,4.565,1.735
		c1.248,1.157,1.872,2.625,1.872,4.4c0,1.85-0.571,3.48-1.716,4.894c-1.145,1.412-2.969,2.118-5.474,2.118
		c-1.595,0-3.005-0.449-4.23-1.346c-1.226-0.897-1.912-2.276-2.058-4.135H82.409z"/>
	<path fill="#222222" d="M108.034,73.969c0.861,1.135,1.291,2.304,1.291,3.506h-2.433c-0.146-0.774-0.378-1.381-0.697-1.818
		c-0.593-0.82-1.489-1.23-2.693-1.23c-1.376,0-2.469,0.636-3.28,1.907c-0.811,1.271-1.262,3.091-1.353,5.461
		c0.564-0.829,1.276-1.448,2.132-1.859c0.784-0.364,1.659-0.547,2.625-0.547c1.64,0,3.07,0.524,4.292,1.572
		c1.221,1.049,1.831,2.61,1.831,4.688c0,1.777-0.578,3.352-1.735,4.723c-1.157,1.372-2.807,2.058-4.948,2.058
		c-1.831,0-3.412-0.694-4.742-2.084s-1.995-3.729-1.995-7.02c0-2.433,0.296-4.496,0.889-6.192c1.14-3.243,3.221-4.865,6.245-4.865
		c2.188-0.012,3.712,0.548,4.572,1.691V73.969z M106.189,88.934c0.643-0.871,0.963-1.898,0.963-3.083
		c0-1.002-0.286-1.957-0.86-2.863s-1.618-1.36-3.131-1.36c-1.057,0-1.983,0.352-2.781,1.053s-1.196,1.758-1.196,3.171
		c0,1.239,0.363,2.28,1.088,3.124c0.724,0.843,1.729,1.264,3.014,1.264c1.293,0,2.262-0.443,2.904-1.307V88.934z"/>
	<path fill="#222222" d="M126.239,72.674v2.146c-0.629,0.609-1.465,1.672-2.508,3.184s-1.967,3.145-2.768,4.894
		c-0.793,1.704-1.394,3.258-1.805,4.661c-0.265,0.901-0.606,2.355-1.025,4.359h-2.72c0.619-3.736,1.986-7.454,4.101-11.152
		c1.248-2.168,2.561-4.042,3.937-5.617h-10.825v-2.475H126.239L126.239,72.674z"/>
	<path fill="#222222" d="M139.943,80.465c-0.719-0.729-1.08-1.677-1.08-2.843c0-1.458,0.527-2.711,1.584-3.759
		c1.055-1.049,2.553-1.572,4.492-1.572c1.875,0,3.346,0.494,4.41,1.482s1.596,2.143,1.596,3.465c0,1.221-0.309,2.21-0.928,2.966
		c-0.346,0.429-0.885,0.849-1.613,1.257c0.814,0.374,1.455,0.803,1.922,1.286c0.867,0.911,1.303,2.096,1.303,3.554
		c0,1.723-0.578,3.184-1.736,4.381c-1.156,1.197-2.793,1.797-4.906,1.797c-1.904,0-3.516-0.516-4.832-1.551
		s-1.975-2.535-1.975-4.504c0-1.156,0.281-2.157,0.848-2.999c0.566-0.843,1.402-1.487,2.514-1.935
		c-0.688-0.291-1.225-0.641-1.609-1.025H139.943z M147.887,89.318c0.752-0.615,1.129-1.533,1.129-2.754
		c0-1.267-0.389-2.228-1.162-2.885c-0.775-0.656-1.77-0.984-2.98-0.984c-1.176,0-2.135,0.335-2.877,1.004
		c-0.744,0.67-1.115,1.598-1.115,2.782c0,1.021,0.34,1.902,1.02,2.646c0.678,0.743,1.729,1.113,3.15,1.113
		c1.143-0.012,2.088-0.326,2.846-0.933L147.887,89.318z M147.432,79.637c0.607-0.607,0.914-1.33,0.914-2.17
		c0-0.73-0.293-1.402-0.873-2.014c-0.584-0.611-1.469-0.918-2.66-0.918c-1.184,0-2.037,0.307-2.564,0.918
		c-0.527,0.61-0.791,1.329-0.791,2.15c0,0.922,0.34,1.643,1.023,2.163c0.682,0.521,1.486,0.782,2.414,0.782
		c1.084,0.012,1.936-0.292,2.543-0.898L147.432,79.637z"/>
	<path fill="#222222" d="M157.322,87.172c0.072,1.357,0.598,2.297,1.572,2.816c0.502,0.272,1.066,0.41,1.695,0.41
		c1.176,0,2.178-0.49,3.008-1.47c0.828-0.979,1.416-2.968,1.762-5.966c-0.547,0.865-1.223,1.475-2.029,1.824
		c-0.805,0.35-1.674,0.525-2.604,0.525c-1.885,0-3.377-0.586-4.477-1.761c-1.098-1.175-1.646-2.687-1.646-4.534
		c0-1.773,0.543-3.336,1.627-4.684c1.086-1.349,2.684-2.02,4.799-2.02c2.852,0,4.82,1.283,5.902,3.852
		c0.604,1.412,0.902,3.179,0.902,5.301c0,2.395-0.359,4.516-1.08,6.364c-1.193,3.078-3.217,4.616-6.068,4.616
		c-1.914,0-3.367-0.501-4.359-1.503c-0.994-1.002-1.49-2.261-1.49-3.772h2.512H157.322z M163.727,82.191
		c0.805-0.641,1.209-1.762,1.209-3.363c0-1.438-0.363-2.508-1.088-3.215c-0.723-0.704-1.646-1.057-2.768-1.057
		c-1.201,0-2.156,0.402-2.863,1.207c-0.705,0.805-1.059,1.881-1.059,3.229c0,1.273,0.311,2.286,0.93,3.037
		c0.619,0.752,1.609,1.126,2.967,1.126c0.967,0,1.854-0.327,2.658-0.968L163.727,82.191z"/>
	<path fill="#222222" d="M182.994,75.474c0.875,1.612,1.313,3.821,1.313,6.63c0,2.66-0.396,4.861-1.189,6.602
		c-1.148,2.497-3.025,3.745-5.631,3.745c-2.352,0-4.102-1.021-5.25-3.062c-0.955-1.705-1.434-3.992-1.434-6.862
		c0-2.224,0.287-4.132,0.861-5.727c1.074-2.971,3.02-4.456,5.836-4.456c2.543,0,4.373,1.039,5.494,3.126V75.474z M180.521,88.514
		c0.758-1.131,1.137-3.234,1.137-6.314c0-2.224-0.273-4.054-0.82-5.488c-0.549-1.435-1.611-2.153-3.189-2.153
		c-1.451,0-2.514,0.682-3.184,2.044c-0.672,1.362-1.006,3.369-1.006,6.021c0,1.995,0.215,3.6,0.643,4.812
		c0.658,1.85,1.781,2.774,3.369,2.774c1.283,0,2.297-0.56,3.057-1.69L180.521,88.514z"/>
	<path fill="#222222" d="M188.932,78.051v-1.886c1.775-0.173,3.016-0.462,3.719-0.868c0.701-0.405,1.225-1.364,1.572-2.877h1.939
		v19.491h-2.623v-13.86h-4.604H188.932z"/>
	<path fill="#222222" d="M204.502,87.51c0.607-1.248,1.789-2.383,3.547-3.402l2.625-1.518c1.176-0.684,2-1.268,2.475-1.751
		c0.746-0.759,1.119-1.626,1.119-2.603c0-1.142-0.342-2.047-1.025-2.717c-0.682-0.672-1.594-1.008-2.732-1.008
		c-1.686,0-2.852,0.641-3.5,1.92c-0.346,0.687-0.537,1.636-0.574,2.852h-2.502c0.027-1.705,0.342-3.094,0.945-4.169
		c1.064-1.896,2.947-2.844,5.645-2.844c2.242,0,3.879,0.606,4.914,1.818c1.033,1.212,1.551,2.56,1.551,4.046
		c0,1.568-0.551,2.906-1.654,4.019c-0.637,0.647-1.781,1.431-3.43,2.351l-1.873,1.04c-0.893,0.492-1.594,0.961-2.104,1.407
		c-0.912,0.793-1.486,1.673-1.723,2.639h10.688v2.324h-13.436c0.104-1.691,0.453-3.162,1.061-4.41L204.502,87.51z"/>
	<path fill="#222222" d="M221.566,80.465c-0.721-0.729-1.08-1.677-1.08-2.843c0-1.458,0.527-2.711,1.582-3.759
		c1.057-1.049,2.555-1.572,4.494-1.572c1.873,0,3.344,0.494,4.41,1.482c1.063,0.988,1.596,2.143,1.596,3.465
		c0,1.221-0.311,2.21-0.928,2.966c-0.348,0.429-0.885,0.849-1.613,1.257c0.814,0.374,1.455,0.803,1.92,1.286
		c0.869,0.911,1.305,2.096,1.305,3.554c0,1.723-0.58,3.184-1.736,4.381c-1.158,1.197-2.793,1.797-4.906,1.797
		c-1.906,0-3.516-0.516-4.834-1.551c-1.316-1.035-1.975-2.535-1.975-4.504c0-1.156,0.283-2.157,0.85-2.999
		c0.564-0.843,1.402-1.487,2.514-1.935c-0.688-0.291-1.225-0.641-1.609-1.025H221.566z M229.51,89.318
		c0.752-0.615,1.127-1.533,1.127-2.754c0-1.267-0.387-2.228-1.162-2.885c-0.773-0.656-1.768-0.984-2.979-0.984
		c-1.176,0-2.135,0.335-2.879,1.004c-0.742,0.67-1.113,1.598-1.113,2.782c0,1.021,0.34,1.902,1.018,2.646
		c0.68,0.743,1.729,1.113,3.15,1.113c1.145-0.012,2.088-0.326,2.848-0.933L229.51,89.318z M229.055,79.637
		c0.607-0.607,0.912-1.33,0.912-2.17c0-0.73-0.291-1.402-0.871-2.014c-0.584-0.611-1.471-0.918-2.66-0.918
		c-1.184,0-2.037,0.307-2.566,0.918c-0.527,0.61-0.791,1.329-0.791,2.15c0,0.922,0.342,1.643,1.023,2.163
		c0.684,0.521,1.488,0.782,2.414,0.782c1.086,0.012,1.926-0.292,2.543-0.898L229.055,79.637z"/>
	<path fill="none" stroke="#000000" stroke-width="1.5" stroke-miterlimit="10" d="M251.588,74.412"/>
</g>
</svg>
