<svg width="156" height="36" viewBox="0 0 156 36" fill="none" xmlns="http://www.w3.org/2000/svg">
<path d="M10.206 6.274V8.722H6.75V19H3.654V8.722H0.234V6.274H10.206ZM16.2014 8.83C17.1974 8.83 18.0854 9.04 18.8654 9.46C19.6574 9.868 20.2754 10.462 20.7194 11.242C21.1754 12.022 21.4034 12.934 21.4034 13.978C21.4034 15.022 21.1754 15.934 20.7194 16.714C20.2754 17.494 19.6574 18.094 18.8654 18.514C18.0854 18.922 17.1974 19.126 16.2014 19.126C15.2054 19.126 14.3114 18.922 13.5194 18.514C12.7274 18.094 12.1034 17.494 11.6474 16.714C11.2034 15.934 10.9814 15.022 10.9814 13.978C10.9814 12.934 11.2034 12.022 11.6474 11.242C12.1034 10.462 12.7274 9.868 13.5194 9.46C14.3114 9.04 15.2054 8.83 16.2014 8.83ZM16.2014 11.494C15.6134 11.494 15.1154 11.71 14.7074 12.142C14.3114 12.562 14.1134 13.174 14.1134 13.978C14.1134 14.782 14.3114 15.394 14.7074 15.814C15.1154 16.234 15.6134 16.444 16.2014 16.444C16.7894 16.444 17.2814 16.234 17.6774 15.814C18.0734 15.394 18.2714 14.782 18.2714 13.978C18.2714 13.174 18.0734 12.562 17.6774 12.142C17.2814 11.71 16.7894 11.494 16.2014 11.494ZM32.9895 8.956V19H29.8935V17.182C29.6055 17.77 29.1735 18.238 28.5975 18.586C28.0335 18.934 27.3735 19.108 26.6175 19.108C25.4655 19.108 24.5475 18.724 23.8635 17.956C23.1915 17.188 22.8555 16.132 22.8555 14.788V8.956H25.9155V14.41C25.9155 15.094 26.0895 15.628 26.4375 16.012C26.7975 16.384 27.2775 16.57 27.8775 16.57C28.5015 16.57 28.9935 16.372 29.3535 15.976C29.7135 15.58 29.8935 15.016 29.8935 14.284V8.956H32.9895ZM39.6468 8.83C40.9428 8.83 42.0288 9.19 42.9048 9.91C43.7808 10.618 44.3328 11.596 44.5608 12.844H41.3028C41.2068 12.412 41.0088 12.076 40.7088 11.836C40.4088 11.596 40.0308 11.476 39.5748 11.476C39.0348 11.476 38.5908 11.692 38.2428 12.124C37.8948 12.544 37.7208 13.162 37.7208 13.978C37.7208 14.794 37.8948 15.418 38.2428 15.85C38.5908 16.27 39.0348 16.48 39.5748 16.48C40.0308 16.48 40.4088 16.36 40.7088 16.12C41.0088 15.88 41.2068 15.544 41.3028 15.112H44.5608C44.3328 16.36 43.7808 17.344 42.9048 18.064C42.0288 18.772 40.9428 19.126 39.6468 19.126C38.6628 19.126 37.7868 18.922 37.0188 18.514C36.2628 18.094 35.6688 17.494 35.2368 16.714C34.8048 15.934 34.5888 15.022 34.5888 13.978C34.5888 12.922 34.7988 12.01 35.2188 11.242C35.6508 10.462 36.2508 9.868 37.0188 9.46C37.7868 9.04 38.6628 8.83 39.6468 8.83ZM52.5395 8.848C53.6915 8.848 54.6035 9.232 55.2755 10C55.9595 10.768 56.3015 11.824 56.3015 13.168V19H53.2235V13.528C53.2235 12.856 53.0435 12.334 52.6835 11.962C52.3355 11.578 51.8675 11.386 51.2795 11.386C50.6555 11.386 50.1575 11.584 49.7855 11.98C49.4255 12.376 49.2455 12.94 49.2455 13.672V19H46.1675V5.68H49.2455V10.792C49.5335 10.192 49.9595 9.718 50.5235 9.37C51.0995 9.022 51.7715 8.848 52.5395 8.848ZM65.013 16.642H69.117V19H61.935V6.274H65.013V16.642ZM74.3467 8.83C75.1148 8.83 75.7748 9.004 76.3268 9.352C76.8787 9.7 77.2867 10.174 77.5508 10.774V8.956H80.6108V19H77.5508V17.182C77.2867 17.782 76.8787 18.256 76.3268 18.604C75.7748 18.952 75.1148 19.126 74.3467 19.126C73.5188 19.126 72.7748 18.922 72.1147 18.514C71.4668 18.094 70.9508 17.494 70.5668 16.714C70.1947 15.934 70.0087 15.022 70.0087 13.978C70.0087 12.922 70.1947 12.01 70.5668 11.242C70.9508 10.462 71.4668 9.868 72.1147 9.46C72.7748 9.04 73.5188 8.83 74.3467 8.83ZM75.3368 11.53C74.6768 11.53 74.1427 11.746 73.7348 12.178C73.3387 12.61 73.1407 13.21 73.1407 13.978C73.1407 14.746 73.3387 15.346 73.7348 15.778C74.1427 16.21 74.6768 16.426 75.3368 16.426C75.9847 16.426 76.5127 16.204 76.9208 15.76C77.3408 15.316 77.5508 14.722 77.5508 13.978C77.5508 13.222 77.3408 12.628 76.9208 12.196C76.5127 11.752 75.9847 11.53 75.3368 11.53ZM88.994 8.83C89.822 8.83 90.56 9.04 91.208 9.46C91.868 9.868 92.384 10.462 92.756 11.242C93.14 12.01 93.332 12.922 93.332 13.978C93.332 15.022 93.14 15.934 92.756 16.714C92.384 17.494 91.868 18.094 91.208 18.514C90.56 18.922 89.822 19.126 88.994 19.126C88.226 19.126 87.566 18.952 87.014 18.604C86.462 18.256 86.06 17.782 85.808 17.182V19H82.73V5.68H85.808V10.774C86.06 10.174 86.462 9.7 87.014 9.352C87.566 9.004 88.226 8.83 88.994 8.83ZM88.004 11.53C87.356 11.53 86.822 11.752 86.402 12.196C85.994 12.628 85.79 13.222 85.79 13.978C85.79 14.722 85.994 15.316 86.402 15.76C86.822 16.204 87.356 16.426 88.004 16.426C88.664 16.426 89.192 16.21 89.588 15.778C89.996 15.346 90.2 14.746 90.2 13.978C90.2 13.21 89.996 12.61 89.588 12.178C89.192 11.746 88.664 11.53 88.004 11.53ZM104.469 13.708C104.469 13.96 104.439 14.236 104.379 14.536H97.4132C97.4492 15.292 97.6412 15.838 97.9892 16.174C98.3372 16.498 98.7812 16.66 99.3212 16.66C99.7772 16.66 100.155 16.546 100.455 16.318C100.755 16.09 100.953 15.796 101.049 15.436H104.307C104.175 16.144 103.887 16.78 103.443 17.344C102.999 17.896 102.435 18.334 101.751 18.658C101.067 18.97 100.305 19.126 99.4652 19.126C98.4812 19.126 97.6052 18.922 96.8372 18.514C96.0812 18.094 95.4872 17.494 95.0552 16.714C94.6232 15.934 94.4072 15.022 94.4072 13.978C94.4072 12.922 94.6172 12.01 95.0372 11.242C95.4692 10.462 96.0692 9.868 96.8372 9.46C97.6052 9.04 98.4812 8.83 99.4652 8.83C100.461 8.83 101.337 9.034 102.093 9.442C102.849 9.85 103.431 10.426 103.839 11.17C104.259 11.902 104.469 12.748 104.469 13.708ZM101.355 13.24C101.367 12.58 101.187 12.088 100.815 11.764C100.455 11.428 100.005 11.26 99.4652 11.26C98.9012 11.26 98.4332 11.428 98.0612 11.764C97.6892 12.1 97.4792 12.592 97.4312 13.24H101.355ZM109.152 5.68V19H106.074V5.68H109.152Z" transform="translate(44.4363 1.89474)" fill="white"/>
<path d="M37.5775 0H1.20231C0.561099 0 0 0.548587 0 1.20418V6.74356V20.1468H9.36781V27.723L17.8621 36H28.085C28.7259 36 29.3955 35.5257 29.3955 34.8705V20.1468H38.7633V6.74323V1.20418C38.7633 0.548587 38.2187 0 37.5775 0Z" fill="white"/>
<path d="M23.258 0H0V1.3211H3.87633V14.5321H11.629V23.1193H19.3817V1.3211H23.258V0Z" transform="translate(7.75269 11.2294)" fill="#222222"/>
</svg>
