<svg width="18" height="18" viewBox="0 0 18 18" fill="none" xmlns="http://www.w3.org/2000/svg">
<path d="M15.4435 9.8775C15.4773 9.59625 15.4998 9.30375 15.4998 9C15.4998 8.69625 15.4773 8.40375 15.4323 8.1225L17.3335 6.6375C17.5023 6.5025 17.5473 6.255 17.446 6.06375L15.646 2.9475C15.5335 2.745 15.2973 2.6775 15.0948 2.745L12.856 3.645C12.3835 3.285 11.8885 2.9925 11.3373 2.7675L10.9998 0.3825C10.966 0.1575 10.7748 0 10.5498 0H6.94979C6.72479 0 6.5448 0.1575 6.51105 0.3825L6.17354 2.7675C5.62229 2.9925 5.11604 3.29625 4.6548 3.645L2.41604 2.745C2.21354 2.66625 1.97729 2.745 1.86479 2.9475L0.0647947 6.06375C-0.0477053 6.26625 -0.00270513 6.5025 0.177295 6.6375L2.07854 8.1225C2.03354 8.40375 1.99979 8.7075 1.99979 9C1.99979 9.2925 2.02229 9.59625 2.06729 9.8775L0.166045 11.3625C-0.00270539 11.4975 -0.0477053 11.745 0.0535447 11.9362L1.85354 15.0525C1.96604 15.255 2.20229 15.3225 2.40479 15.255L4.64354 14.355C5.11604 14.715 5.61104 15.0075 6.16229 15.2325L6.49979 17.6175C6.5448 17.8425 6.72479 18 6.94979 18H10.5498C10.7748 18 10.966 17.8425 10.9885 17.6175L11.326 15.2325C11.8773 15.0075 12.3835 14.7038 12.8448 14.355L15.0835 15.255C15.286 15.3338 15.5223 15.255 15.6348 15.0525L17.4348 11.9362C17.5473 11.7337 17.5023 11.4975 17.3223 11.3625L15.4435 9.8775ZM8.74979 12.375C6.89355 12.375 5.37479 10.8562 5.37479 9C5.37479 7.14375 6.89355 5.625 8.74979 5.625C10.606 5.625 12.1248 7.14375 12.1248 9C12.1248 10.8562 10.606 12.375 8.74979 12.375Z" fill="white"/>
</svg>
