<svg width="17" height="18" viewBox="0 0 17 18" fill="none" xmlns="http://www.w3.org/2000/svg">
<path d="M7.92132 0C10.6556 0 12.8722 2.20359 12.8722 4.92188C12.8722 7.64016 10.6556 9.84375 7.92132 9.84375C5.18705 9.84375 2.9705 7.64016 2.9705 4.92188C2.9705 2.20359 5.18705 0 7.92132 0ZM13.2712 10.189L11.386 9.72047C9.0677 11.3782 6.25761 11.0083 4.45669 9.72047L2.57151 10.189C1.06018 10.5646 0 11.9145 0 13.4633V16.3125C0 17.2445 0.759976 18 1.69743 18H14.1452C15.0827 18 15.8426 17.2445 15.8426 16.3125V13.4633C15.8426 11.9145 14.7825 10.5646 13.2712 10.189Z" transform="translate(0.166931)" fill="white"/>
</svg>
