<svg width="21" height="18" viewBox="0 0 21 18" fill="none" xmlns="http://www.w3.org/2000/svg">
<path d="M19.6875 10.125H16.875V13.5L15.75 12.7512L14.625 13.5V10.125H11.8125C11.5031 10.125 11.25 10.3781 11.25 10.6875V17.4375C11.25 17.7469 11.5031 18 11.8125 18H19.6875C19.9969 18 20.25 17.7469 20.25 17.4375V10.6875C20.25 10.3781 19.9969 10.125 19.6875 10.125ZM6.1875 7.875H14.0625C14.3719 7.875 14.625 7.62188 14.625 7.3125V0.5625C14.625 0.253125 14.3719 0 14.0625 0H11.25V3.375L10.125 2.62617L9 3.375V0H6.1875C5.87813 0 5.625 0.253125 5.625 0.5625V7.3125C5.625 7.62188 5.87813 7.875 6.1875 7.875ZM8.4375 10.125H5.625V13.5L4.5 12.7512L3.375 13.5V10.125H0.5625C0.253125 10.125 0 10.3781 0 10.6875V17.4375C0 17.7469 0.253125 18 0.5625 18H8.4375C8.74687 18 9 17.7469 9 17.4375V10.6875C9 10.3781 8.74687 10.125 8.4375 10.125Z" fill="white"/>
</svg>
