<svg width="30" height="30" viewBox="0 0 30 30" fill="none" xmlns="http://www.w3.org/2000/svg">
<path d="M17.5 16.875V10.625C17.5 6.7875 15.45 3.575 11.875 2.725V1.875C11.875 0.8375 11.0375 0 10 0C8.9625 0 8.125 0.8375 8.125 1.875V2.725C4.5375 3.575 2.5 6.775 2.5 10.625V16.875L0 19.375V20.625H20V19.375L17.5 16.875ZM11.25 16.875H8.75V14.375H11.25V16.875ZM11.25 11.875H8.75V6.875H11.25V11.875ZM10 24.375C11.375 24.375 12.5 23.25 12.5 21.875H7.5C7.5 23.25 8.6125 24.375 10 24.375Z" transform="translate(5 3.125)" fill="black"/>
</svg>
