<?xml version="1.0" encoding="utf-8"?>
<!-- Generator: Adobe Illustrator 16.0.0, SVG Export Plug-In . SVG Version: 6.00 Build 0)  -->
<!DOCTYPE svg PUBLIC "-//W3C//DTD SVG 1.1//EN" "http://www.w3.org/Graphics/SVG/1.1/DTD/svg11.dtd">
<svg version="1.1" id="Calque_1" xmlns="http://www.w3.org/2000/svg" xmlns:xlink="http://www.w3.org/1999/xlink" x="0px" y="0px"
	 width="120px" height="120px" viewBox="0 0 120 120" enable-background="new 0 0 120 120" xml:space="preserve">
<path d="M78.533,33.321c-1.68-11.881,8.52-21.24,8.52-21.24h-26.64h-0.12h-26.64c0,0,10.32,9.359,8.52,21.24
	c-1.8,11.88-12.6,32.88-11.88,42.839c0.12,1.32,0.24,2.641,0.36,4.08c0,0.961,0.12,1.92,0.24,2.76c0.48,3.6,1.44,6.961,2.64,10.32
	c0.36,1.08,0.72,2.279,1.2,3.24c1.08,2.16,2.88,4.199,4.2,6.119c0.6,0.961,1.2,1.801,2.16,2.521c1.44,1.08,3,1.559,4.68,1.799
	c0.84,0.121,1.68,0.24,2.52,0.361c2.64,0.359,5.4,0.359,8.04,0.479c4.319,0.121,8.521,0.121,12.84-0.119
	c1.08-0.121,2.16-0.121,3.24-0.24c1.319-0.119,2.64-0.359,3.84-0.721c1.44-0.359,2.64-1.08,3.72-2.039
	c0.961-0.961,1.561-2.041,2.28-3.24c0.96-1.561,1.92-3.24,2.761-4.92c1.319-3.119,2.399-6.24,3.119-9.6
	c0.12-0.48,0.24-0.84,0.24-1.32c0.721-3.24,1.08-6.48,1.32-9.6C90.533,66.08,80.213,45.201,78.533,33.321z"/>
</svg>
