<?xml version="1.0" standalone="no"?>
<!DOCTYPE svg PUBLIC "-//W3C//DTD SVG 20010904//EN"
 "http://www.w3.org/TR/2001/REC-SVG-20010904/DTD/svg10.dtd">
<svg version="1.0" xmlns="http://www.w3.org/2000/svg"
 width="600.000000pt" height="600.000000pt" viewBox="0 0 600.000000 600.000000"
 preserveAspectRatio="xMidYMid meet">
<metadata>
Created by potrace 1.11, written by Peter Selinger 2001-2013
</metadata>
<g transform="translate(0.000000,600.000000) scale(0.100000,-0.100000)"
fill="#000000" stroke="none">
<path d="M250 5817 c-30 -16 -51 -37 -67 -67 l-23 -43 2 -1361 3 -1361 702 0
c386 0 705 -3 708 -7 4 -4 7 -375 7 -825 l0 -818 293 -290 c162 -159 431 -426
599 -592 l306 -303 761 0 762 0 44 25 c42 25 69 62 77 107 3 13 5 626 5 1363
l1 1340 708 0 707 0 3 1361 2 1361 -23 44 c-16 31 -36 51 -67 67 l-44 22
-2712 0 -2711 0 -43 -23z m4477 -1581 c5 -5 7 -142 4 -208 -1 -17 -21 -18
-269 -18 l-269 0 0 -1816 c0 -1279 -3 -1818 -10 -1822 -14 -9 -1155 -8 -1168
0 -6 4 -10 223 -10 600 l1 593 -595 5 -594 5 0 1218 0 1217 -253 0 -252 0 0
118 0 117 1705 -1 c937 -1 1707 -5 1710 -8z"/>
</g>
</svg>
